<svg width="21" height="20" viewBox="0 0 21 20" fill="none" xmlns="http://www.w3.org/2000/svg">
<g id="social">
<rect id="bg" x="1.375" y="1.25" width="17.5" height="17.5" rx="8.75" fill="#1275B1"/>
<g id="linked_in">
<path d="M8.0116 6.05759C8.0116 6.64169 7.50532 7.11519 6.8808 7.11519C6.25628 7.11519 5.75 6.64169 5.75 6.05759C5.75 5.4735 6.25628 5 6.8808 5C7.50532 5 8.0116 5.4735 8.0116 6.05759Z" fill="white"/>
<path d="M5.90464 7.89256H7.83763V13.75H5.90464V7.89256Z" fill="white"/>
<path d="M10.9497 7.89256H9.01675V13.75H10.9497C10.9497 13.75 10.9497 11.906 10.9497 10.753C10.9497 10.061 11.186 9.36596 12.1289 9.36596C13.1944 9.36596 13.188 10.2716 13.183 10.9732C13.1765 11.8903 13.192 12.8262 13.192 13.75H15.125V10.6586C15.1086 8.68461 14.5943 7.77505 12.9021 7.77505C11.8971 7.77505 11.2742 8.23129 10.9497 8.64406V7.89256Z" fill="white"/>
</g>
</g>
</svg>
