<svg width="1000" height="300" viewBox="0 0 1000 300" fill="none" xmlns="http://www.w3.org/2000/svg">
<g clip-path="url(#clip0_916_1452)">
<rect width="1000" height="300" fill="white"/>
<rect width="1000" height="300" fill="white"/>
<rect width="1000" height="300" fill="url(#paint0_linear_916_1452)" fill-opacity="0.2"/>
<path d="M419.972 137.375C412.671 137.375 406.755 143.25 406.755 150.5C406.755 157.75 412.671 163.625 419.972 163.625C427.272 163.625 433.188 157.75 433.188 150.5C433.188 143.25 427.272 137.375 419.972 137.375ZM419.972 158.625C415.453 158.625 411.79 154.988 411.79 150.5C411.79 146.013 415.453 142.375 419.972 142.375C424.491 142.375 428.153 146.013 428.153 150.5C428.153 154.988 424.491 158.625 419.972 158.625Z" fill="#5528FF"/>
<path d="M449.846 153.325C453.28 152.388 455.808 149.263 455.834 145.563C455.834 145.538 455.834 145.525 455.834 145.5C455.834 145.475 455.834 145.463 455.834 145.438C455.796 140.975 452.148 137.375 447.657 137.375H436.965V142.1L440.99 148.613H436.977V163.625H442.009V153.613H444.122L450.308 163.625H456.224L449.846 153.325ZM447.67 148.625H446.928L443.041 142.375H447.67C449.406 142.375 450.815 143.775 450.815 145.5C450.815 147.225 449.406 148.625 447.67 148.625Z" fill="#5528FF"/>
<path d="M464.782 163.625H459.118L465.764 150.513L459.118 137.375H464.782L468.571 144.925L472.461 137.375H477.999L464.782 163.625Z" fill="#5528FF"/>
<path d="M383.217 137.375C375.916 137.375 370 143.25 370 150.5C370 157.75 375.916 163.625 383.217 163.625C390.517 163.625 396.434 157.75 396.434 150.5C396.434 143.25 390.517 137.375 383.217 137.375Z" fill="#5528FF"/>
<path d="M383.217 123L396.434 129.5L396.434 135.125L383.217 128.625L370 135.125L370 129.5L383.217 123Z" fill="#5528FF"/>
<path d="M383.217 178L370 171.5L370 165.875L383.217 172.375L396.434 165.875L396.434 171.5L383.217 178Z" fill="#5528FF"/>
<path d="M505.238 135.445L494.613 164H491.41L502.055 135.445H505.238ZM529.738 142.203C531.561 142.203 533.124 142.607 534.426 143.414C535.728 144.221 536.724 145.354 537.414 146.812C538.104 148.258 538.449 149.951 538.449 151.891V153.902H523.664C523.703 156.415 524.328 158.329 525.539 159.645C526.75 160.96 528.456 161.617 530.656 161.617C532.01 161.617 533.208 161.493 534.25 161.246C535.292 160.999 536.372 160.634 537.492 160.152V163.004C536.411 163.486 535.337 163.837 534.27 164.059C533.215 164.28 531.965 164.391 530.52 164.391C528.462 164.391 526.665 163.974 525.129 163.141C523.605 162.294 522.421 161.057 521.574 159.43C520.728 157.802 520.305 155.81 520.305 153.453C520.305 151.148 520.689 149.156 521.457 147.477C522.238 145.784 523.332 144.482 524.738 143.57C526.158 142.659 527.824 142.203 529.738 142.203ZM529.699 144.859C527.967 144.859 526.587 145.426 525.559 146.559C524.53 147.691 523.918 149.273 523.723 151.305H535.051C535.038 150.029 534.836 148.909 534.445 147.945C534.068 146.969 533.488 146.214 532.707 145.68C531.926 145.133 530.923 144.859 529.699 144.859ZM550.055 153.043L542.652 142.594H546.363L552.008 150.836L557.633 142.594H561.305L553.902 153.043L561.715 164H558.004L552.008 155.27L545.973 164H542.301L550.055 153.043ZM574.902 142.242C577.454 142.242 579.349 142.815 580.586 143.961C581.823 145.107 582.441 146.936 582.441 149.449V164H580.078L579.453 160.836H579.297C578.698 161.617 578.073 162.275 577.422 162.809C576.771 163.329 576.016 163.727 575.156 164C574.31 164.26 573.268 164.391 572.031 164.391C570.729 164.391 569.57 164.163 568.555 163.707C567.552 163.251 566.758 162.561 566.172 161.637C565.599 160.712 565.312 159.54 565.312 158.121C565.312 155.986 566.159 154.345 567.852 153.199C569.544 152.053 572.122 151.428 575.586 151.324L579.277 151.168V149.859C579.277 148.01 578.88 146.715 578.086 145.973C577.292 145.23 576.172 144.859 574.727 144.859C573.607 144.859 572.539 145.022 571.523 145.348C570.508 145.673 569.544 146.057 568.633 146.5L567.637 144.039C568.6 143.544 569.707 143.121 570.957 142.77C572.207 142.418 573.522 142.242 574.902 142.242ZM579.238 153.453L575.977 153.59C573.307 153.694 571.426 154.13 570.332 154.898C569.238 155.667 568.691 156.754 568.691 158.16C568.691 159.384 569.062 160.289 569.805 160.875C570.547 161.461 571.53 161.754 572.754 161.754C574.655 161.754 576.211 161.227 577.422 160.172C578.633 159.117 579.238 157.535 579.238 155.426V153.453ZM613.363 142.203C615.72 142.203 617.497 142.822 618.695 144.059C619.893 145.283 620.492 147.255 620.492 149.977V164H617.289V150.133C617.289 148.401 616.911 147.105 616.156 146.246C615.414 145.374 614.307 144.938 612.836 144.938C610.766 144.938 609.262 145.536 608.324 146.734C607.387 147.932 606.918 149.697 606.918 152.027V164H603.695V150.133C603.695 148.974 603.526 148.01 603.188 147.242C602.862 146.474 602.367 145.901 601.703 145.523C601.052 145.133 600.225 144.938 599.223 144.938C597.803 144.938 596.664 145.23 595.805 145.816C594.945 146.402 594.32 147.275 593.93 148.434C593.552 149.579 593.363 150.992 593.363 152.672V164H590.121V142.594H592.738L593.227 145.621H593.402C593.832 144.879 594.372 144.254 595.023 143.746C595.674 143.238 596.404 142.854 597.211 142.594C598.018 142.333 598.878 142.203 599.789 142.203C601.417 142.203 602.777 142.509 603.871 143.121C604.978 143.72 605.779 144.638 606.273 145.875H606.449C607.152 144.638 608.116 143.72 609.34 143.121C610.564 142.509 611.905 142.203 613.363 142.203ZM638.211 142.203C640.88 142.203 643.009 143.121 644.598 144.957C646.186 146.793 646.98 149.553 646.98 153.238C646.98 155.673 646.616 157.717 645.887 159.371C645.158 161.025 644.129 162.275 642.801 163.121C641.486 163.967 639.93 164.391 638.133 164.391C637 164.391 636.004 164.241 635.145 163.941C634.285 163.642 633.549 163.238 632.938 162.73C632.326 162.223 631.818 161.669 631.414 161.07H631.18C631.219 161.578 631.264 162.19 631.316 162.906C631.382 163.622 631.414 164.247 631.414 164.781V173.57H628.152V142.594H630.828L631.258 145.758H631.414C631.831 145.107 632.339 144.514 632.938 143.98C633.536 143.434 634.266 143.004 635.125 142.691C635.997 142.366 637.026 142.203 638.211 142.203ZM637.645 144.938C636.16 144.938 634.962 145.224 634.051 145.797C633.152 146.37 632.495 147.229 632.078 148.375C631.661 149.508 631.44 150.934 631.414 152.652V153.277C631.414 155.087 631.609 156.617 632 157.867C632.404 159.117 633.061 160.068 633.973 160.719C634.897 161.37 636.134 161.695 637.684 161.695C639.012 161.695 640.118 161.337 641.004 160.621C641.889 159.905 642.547 158.909 642.977 157.633C643.419 156.344 643.641 154.866 643.641 153.199C643.641 150.673 643.146 148.668 642.156 147.184C641.18 145.686 639.676 144.938 637.645 144.938ZM656.906 164H653.645V133.609H656.906V164ZM673.004 142.203C674.827 142.203 676.389 142.607 677.691 143.414C678.993 144.221 679.99 145.354 680.68 146.812C681.37 148.258 681.715 149.951 681.715 151.891V153.902H666.93C666.969 156.415 667.594 158.329 668.805 159.645C670.016 160.96 671.721 161.617 673.922 161.617C675.276 161.617 676.474 161.493 677.516 161.246C678.557 160.999 679.638 160.634 680.758 160.152V163.004C679.677 163.486 678.603 163.837 677.535 164.059C676.48 164.28 675.23 164.391 673.785 164.391C671.728 164.391 669.931 163.974 668.395 163.141C666.871 162.294 665.686 161.057 664.84 159.43C663.993 157.802 663.57 155.81 663.57 153.453C663.57 151.148 663.954 149.156 664.723 147.477C665.504 145.784 666.598 144.482 668.004 143.57C669.423 142.659 671.09 142.203 673.004 142.203ZM672.965 144.859C671.233 144.859 669.853 145.426 668.824 146.559C667.796 147.691 667.184 149.273 666.988 151.305H678.316C678.303 150.029 678.102 148.909 677.711 147.945C677.333 146.969 676.754 146.214 675.973 145.68C675.191 145.133 674.189 144.859 672.965 144.859ZM702.07 158.141C702.07 159.508 701.725 160.66 701.035 161.598C700.358 162.522 699.382 163.219 698.105 163.688C696.842 164.156 695.332 164.391 693.574 164.391C692.077 164.391 690.781 164.273 689.688 164.039C688.594 163.805 687.637 163.473 686.816 163.043V160.055C687.689 160.484 688.73 160.875 689.941 161.227C691.152 161.578 692.389 161.754 693.652 161.754C695.501 161.754 696.842 161.454 697.676 160.855C698.509 160.257 698.926 159.443 698.926 158.414C698.926 157.828 698.757 157.314 698.418 156.871C698.092 156.415 697.539 155.979 696.758 155.562C695.977 155.133 694.896 154.664 693.516 154.156C692.148 153.635 690.964 153.121 689.961 152.613C688.971 152.092 688.203 151.461 687.656 150.719C687.122 149.977 686.855 149.013 686.855 147.828C686.855 146.018 687.585 144.632 689.043 143.668C690.514 142.691 692.441 142.203 694.824 142.203C696.113 142.203 697.318 142.333 698.438 142.594C699.57 142.841 700.625 143.18 701.602 143.609L700.508 146.207C699.622 145.829 698.678 145.51 697.676 145.25C696.673 144.99 695.651 144.859 694.609 144.859C693.112 144.859 691.96 145.107 691.152 145.602C690.358 146.096 689.961 146.773 689.961 147.633C689.961 148.297 690.143 148.844 690.508 149.273C690.885 149.703 691.484 150.107 692.305 150.484C693.125 150.862 694.206 151.305 695.547 151.812C696.888 152.307 698.047 152.822 699.023 153.355C700 153.876 700.749 154.514 701.27 155.27C701.803 156.012 702.07 156.969 702.07 158.141Z" fill="#5528FF"/>
<line x1="1000" y1="0.5" y2="0.5" stroke="#5528FF"/>
</g>
<defs>
<linearGradient id="paint0_linear_916_1452" x1="1000" y1="300" x2="-18.3028" y2="87.8536" gradientUnits="userSpaceOnUse">
<stop stop-color="#5528FF"/>
<stop offset="1" stop-color="#5528FF" stop-opacity="0"/>
</linearGradient>
<clipPath id="clip0_916_1452">
<rect width="1000" height="300" fill="white"/>
</clipPath>
</defs>
</svg>
